<svg xmlns="http://www.w3.org/2000/svg" xmlns:xlink="http://www.w3.org/1999/xlink" width="1400" zoomAndPan="magnify" viewBox="0 0 1050 1049.999947" height="1400" preserveAspectRatio="xMidYMid meet" version="1.0"><defs><filter x="0%" y="0%" width="100%" height="100%" id="21bdffe5fb"><feColorMatrix values="0 0 0 0 1 0 0 0 0 1 0 0 0 0 1 0 0 0 1 0" color-interpolation-filters="sRGB"/></filter><mask id="4e5f43549c"><g filter="url(#21bdffe5fb)"><rect x="-105" width="1260" fill="#000000" y="-104.999995" height="1259.999936" fill-opacity="0.27"/></g></mask><clipPath id="de15178176"><path d="M 51.324219 15 L 709.640625 15 L 709.640625 741.125 L 51.324219 741.125 Z M 51.324219 15 " clip-rule="nonzero"/></clipPath><clipPath id="fa3e6c773f"><rect x="0" width="757" y="0" height="742"/></clipPath><clipPath id="55c17c0bb0"><path d="M 158 237 L 891 237 L 891 962.59375 L 158 962.59375 Z M 158 237 " clip-rule="nonzero"/></clipPath><clipPath id="99bb1ee74d"><path d="M 509 55.855469 L 540 55.855469 L 540 117 L 509 117 Z M 509 55.855469 " clip-rule="nonzero"/></clipPath><clipPath id="c6e241e882"><path d="M 357 411 L 693 411 L 693 789 L 357 789 Z M 357 411 " clip-rule="nonzero"/></clipPath><clipPath id="eeeafe4f24"><path d="M 357.429688 412.582031 L 690.546875 410.796875 L 692.570312 787.886719 L 359.453125 789.671875 Z M 357.429688 412.582031 " clip-rule="nonzero"/></clipPath><clipPath id="3b80f74a37"><path d="M 523.988281 411.6875 L 691.03125 501.082031 L 692.085938 697.597656 L 526.011719 788.78125 L 358.96875 699.386719 L 357.914062 502.871094 Z M 523.988281 411.6875 " clip-rule="nonzero"/></clipPath><clipPath id="032ddf3275"><path d="M 158 237 L 891 237 L 891 962.59375 L 158 962.59375 Z M 158 237 " clip-rule="nonzero"/></clipPath><clipPath id="bd349e03c1"><path d="M 509 55.855469 L 540 55.855469 L 540 117 L 509 117 Z M 509 55.855469 " clip-rule="nonzero"/></clipPath></defs><g mask="url(#4e5f43549c)"><g transform="matrix(1, 0, 0, 1, 145, 253)"><g clip-path="url(#fa3e6c773f)"><g clip-path="url(#de15178176)"><path fill="#a6a6a6" d="M 68.949219 174.21875 C 55.0625 181.59375 46.449219 195.964844 46.449219 211.757812 L 46.449219 543.441406 L 20.953125 556.9375 C 13.578125 560.851562 10.753906 569.996094 14.667969 577.371094 C 17.386719 582.492188 22.617188 585.410156 28.042969 585.410156 C 30.429688 585.410156 32.847656 584.851562 35.097656 583.65625 L 56.679688 572.230469 C 60.125 576.328125 64.070312 580.03125 68.980469 582.628906 L 359.335938 736.261719 C 365.46875 739.496094 372.210938 741.097656 378.933594 741.097656 C 385.660156 741.097656 392.398438 739.496094 398.550781 736.246094 L 688.902344 582.628906 C 693.800781 580.03125 697.746094 576.328125 701.191406 572.230469 L 722.753906 583.65625 C 724.992188 584.851562 727.425781 585.410156 729.8125 585.410156 C 735.222656 585.410156 740.464844 582.492188 743.1875 577.371094 C 747.101562 570.011719 744.273438 560.851562 736.898438 556.9375 L 711.40625 543.441406 L 711.40625 211.757812 C 711.40625 195.964844 702.792969 181.59375 688.886719 174.21875 L 398.535156 20.585938 C 386.265625 14.117188 371.636719 14.105469 359.320312 20.585938 L 68.964844 174.203125 Z M 83.125 555.925781 C 79.136719 553.808594 76.671875 549.667969 76.671875 545.089844 L 76.671875 224.632812 L 182.460938 285.308594 L 182.460938 480.304688 C 182.460938 485.894531 185.558594 491.046875 190.5 493.664062 L 363.808594 585.363281 L 363.808594 704.433594 L 83.125 555.910156 Z M 378.917969 559.175781 L 229.835938 480.289062 L 378.917969 401.160156 L 528.003906 480.289062 Z M 545.15625 455.203125 L 394.03125 374.984375 L 394.03125 205.683594 L 545.15625 285.640625 Z M 363.808594 374.984375 L 212.683594 455.203125 L 212.683594 285.65625 L 363.808594 205.699219 L 363.808594 375 Z M 674.726562 555.925781 L 394.03125 704.433594 L 394.03125 585.378906 L 567.339844 493.679688 C 572.28125 491.0625 575.378906 485.910156 575.378906 480.320312 L 575.378906 285.324219 L 681.164062 224.648438 L 681.164062 545.105469 C 681.164062 549.683594 678.703125 553.824219 674.726562 555.941406 Z M 378.917969 45.976562 C 380.808594 45.976562 382.683594 46.414062 384.390625 47.320312 L 667.972656 197.371094 L 559.996094 259.300781 L 385.992188 167.222656 C 381.5625 164.894531 376.273438 164.894531 371.847656 167.222656 L 197.84375 259.300781 L 89.867188 197.355469 L 373.433594 47.320312 C 375.140625 46.398438 377.03125 45.960938 378.917969 45.960938 Z M 378.917969 45.976562 " fill-opacity="1" fill-rule="nonzero"/></g><path fill="#a6a6a6" d="M 138.632812 494.660156 L 109.089844 510.316406 C 101.730469 514.230469 98.902344 523.375 102.816406 530.761719 C 105.539062 535.871094 110.765625 538.789062 116.191406 538.789062 C 118.578125 538.789062 120.996094 538.230469 123.265625 537.035156 L 152.808594 521.378906 C 160.167969 517.464844 162.996094 508.320312 159.082031 500.933594 C 155.152344 493.570312 145.992188 490.746094 138.632812 494.660156 Z M 138.632812 494.660156 " fill-opacity="1" fill-rule="nonzero"/><path fill="#a6a6a6" d="M 648.75 510.332031 L 619.207031 494.675781 C 611.832031 490.777344 602.6875 493.585938 598.757812 500.945312 C 594.84375 508.320312 597.671875 517.480469 605.03125 521.394531 L 634.574219 537.050781 C 636.828125 538.242188 639.257812 538.804688 641.648438 538.804688 C 647.058594 538.804688 652.300781 535.886719 655.023438 530.777344 C 658.9375 523.402344 656.109375 514.246094 648.75 510.332031 Z M 648.75 510.332031 " fill-opacity="1" fill-rule="nonzero"/><path fill="#a6a6a6" d="M 378.917969 136.632812 C 387.277344 136.632812 394.03125 129.878906 394.03125 121.523438 L 394.03125 91.296875 C 394.03125 82.941406 387.277344 76.183594 378.917969 76.183594 C 370.5625 76.183594 363.808594 82.941406 363.808594 91.296875 L 363.808594 121.523438 C 363.808594 129.878906 370.5625 136.632812 378.917969 136.632812 Z M 378.917969 136.632812 " fill-opacity="1" fill-rule="nonzero"/></g></g></g><g clip-path="url(#55c17c0bb0)"><path fill="#0e2c70" d="M 214.269531 395.683594 C 200.378906 403.058594 191.765625 417.429688 191.765625 433.222656 L 191.765625 764.910156 L 166.273438 778.402344 C 158.898438 782.316406 156.070312 791.460938 159.984375 798.835938 C 162.707031 803.957031 167.933594 806.875 173.359375 806.875 C 175.746094 806.875 178.164062 806.316406 180.417969 805.121094 L 201.996094 793.699219 C 205.441406 797.792969 209.386719 801.496094 214.296875 804.09375 L 504.652344 957.726562 C 510.785156 960.960938 517.527344 962.5625 524.253906 962.5625 C 530.976562 962.5625 537.71875 960.960938 543.867188 957.710938 L 834.222656 804.09375 C 839.117188 801.496094 843.0625 797.792969 846.507812 793.699219 L 868.074219 805.121094 C 870.308594 806.316406 872.742188 806.875 875.128906 806.875 C 880.539062 806.875 885.785156 803.957031 888.503906 798.835938 C 892.417969 791.476562 889.59375 782.316406 882.21875 778.402344 L 856.722656 764.910156 L 856.722656 433.222656 C 856.722656 417.429688 848.109375 403.058594 834.207031 395.683594 L 543.851562 242.054688 C 531.582031 235.585938 516.953125 235.570312 504.636719 242.054688 L 214.285156 395.667969 Z M 228.445312 777.390625 C 224.453125 775.277344 221.992188 771.136719 221.992188 766.554688 L 221.992188 446.097656 L 327.777344 506.773438 L 327.777344 701.769531 C 327.777344 707.359375 330.875 712.515625 335.816406 715.128906 L 509.125 806.832031 L 509.125 925.898438 L 228.445312 777.375 Z M 524.238281 780.640625 L 375.152344 701.753906 L 524.238281 622.625 L 673.320312 701.753906 Z M 690.472656 676.667969 L 539.347656 596.453125 L 539.347656 427.148438 L 690.472656 507.109375 Z M 509.125 596.453125 L 358 676.667969 L 358 507.121094 L 509.125 427.164062 L 509.125 596.464844 Z M 820.046875 777.390625 L 539.347656 925.898438 L 539.347656 806.84375 L 712.65625 715.144531 C 717.597656 712.53125 720.695312 707.375 720.695312 701.785156 L 720.695312 506.789062 L 826.484375 446.113281 L 826.484375 766.570312 C 826.484375 771.148438 824.019531 775.289062 820.046875 777.40625 Z M 524.238281 267.441406 C 526.125 267.441406 528 267.878906 529.707031 268.785156 L 813.289062 418.835938 L 705.3125 480.765625 L 531.308594 388.6875 C 526.882812 386.359375 521.59375 386.359375 517.164062 388.6875 L 343.160156 480.765625 L 235.183594 418.820312 L 518.75 268.785156 C 520.457031 267.863281 522.347656 267.425781 524.238281 267.425781 Z M 524.238281 267.441406 " fill-opacity="1" fill-rule="nonzero"/></g><path fill="#0e2c70" d="M 85.996094 853.238281 C 88.382812 853.238281 90.800781 852.679688 93.066406 851.488281 L 125.859375 834.109375 C 133.222656 830.195312 136.046875 821.050781 132.132812 813.660156 C 128.21875 806.300781 119.0625 803.476562 111.6875 807.390625 L 78.890625 824.769531 C 71.53125 828.683594 68.707031 837.824219 72.621094 845.214844 C 75.339844 850.324219 80.570312 853.238281 85.996094 853.238281 Z M 85.996094 853.238281 " fill-opacity="1" fill-rule="nonzero"/><path fill="#0e2c70" d="M 283.953125 716.125 L 254.40625 731.78125 C 247.046875 735.695312 244.222656 744.839844 248.136719 752.230469 C 250.855469 757.335938 256.085938 760.253906 261.507812 760.253906 C 263.898438 760.253906 266.316406 759.695312 268.582031 758.5 L 298.125 742.84375 C 305.484375 738.929688 308.3125 729.789062 304.398438 722.398438 C 300.46875 715.039062 291.3125 712.210938 283.953125 716.125 Z M 283.953125 716.125 " fill-opacity="1" fill-rule="nonzero"/><path fill="#0e2c70" d="M 794.066406 731.796875 L 764.523438 716.140625 C 757.148438 712.242188 748.003906 715.054688 744.074219 722.414062 C 740.160156 729.789062 742.988281 738.945312 750.347656 742.859375 L 779.890625 758.515625 C 782.144531 759.710938 784.578125 760.269531 786.964844 760.269531 C 792.375 760.269531 797.617188 757.351562 800.339844 752.246094 C 804.253906 744.871094 801.425781 735.710938 794.066406 731.796875 Z M 794.066406 731.796875 " fill-opacity="1" fill-rule="nonzero"/><path fill="#0e2c70" d="M 922.613281 834.09375 L 955.40625 851.472656 C 957.65625 852.664062 960.089844 853.226562 962.480469 853.226562 C 967.890625 853.226562 973.132812 850.308594 975.851562 845.199219 C 979.765625 837.824219 976.941406 828.667969 969.582031 824.753906 L 936.789062 807.375 C 929.429688 803.476562 920.253906 806.285156 916.339844 813.644531 C 912.425781 821.019531 915.253906 830.179688 922.613281 834.09375 Z M 922.613281 834.09375 " fill-opacity="1" fill-rule="nonzero"/><path fill="#0e2c70" d="M 524.238281 358.101562 C 532.59375 358.101562 539.347656 351.34375 539.347656 342.988281 L 539.347656 312.761719 C 539.347656 304.40625 532.59375 297.652344 524.238281 297.652344 C 515.878906 297.652344 509.125 304.40625 509.125 312.761719 L 509.125 342.988281 C 509.125 351.34375 515.878906 358.101562 524.238281 358.101562 Z M 524.238281 358.101562 " fill-opacity="1" fill-rule="nonzero"/><path fill="#0e2c70" d="M 509.125 191.863281 C 509.125 200.222656 515.878906 206.976562 524.238281 206.976562 C 532.59375 206.976562 539.347656 200.222656 539.347656 191.863281 L 539.347656 161.640625 C 539.347656 153.28125 532.59375 146.527344 524.238281 146.527344 C 515.878906 146.527344 509.125 153.28125 509.125 161.640625 Z M 509.125 191.863281 " fill-opacity="1" fill-rule="nonzero"/><g clip-path="url(#99bb1ee74d)"><path fill="#0e2c70" d="M 524.238281 116.304688 C 532.59375 116.304688 539.347656 109.546875 539.347656 101.191406 L 539.347656 70.964844 C 539.347656 62.609375 532.59375 55.855469 524.238281 55.855469 C 515.878906 55.855469 509.125 62.609375 509.125 70.964844 L 509.125 101.191406 C 509.125 109.546875 515.878906 116.304688 524.238281 116.304688 Z M 524.238281 116.304688 " fill-opacity="1" fill-rule="nonzero"/></g><g clip-path="url(#c6e241e882)"><g clip-path="url(#eeeafe4f24)"><g clip-path="url(#3b80f74a37)"><path fill="#051f42" d="M 357.429688 412.582031 L 690.546875 410.796875 L 692.570312 787.886719 L 359.453125 789.671875 Z M 357.429688 412.582031 " fill-opacity="1" fill-rule="nonzero"/></g></g></g><g clip-path="url(#032ddf3275)"><path fill="#0481d1" d="M 214.269531 395.683594 C 200.378906 403.058594 191.765625 417.429688 191.765625 433.222656 L 191.765625 764.910156 L 166.273438 778.402344 C 158.898438 782.316406 156.070312 791.460938 159.984375 798.835938 C 162.707031 803.957031 167.933594 806.875 173.359375 806.875 C 175.746094 806.875 178.164062 806.316406 180.417969 805.121094 L 201.996094 793.699219 C 205.441406 797.792969 209.386719 801.496094 214.296875 804.09375 L 504.652344 957.726562 C 510.785156 960.960938 517.527344 962.5625 524.253906 962.5625 C 530.976562 962.5625 537.71875 960.960938 543.867188 957.710938 L 834.222656 804.09375 C 839.117188 801.496094 843.0625 797.792969 846.507812 793.699219 L 868.074219 805.121094 C 870.308594 806.316406 872.742188 806.875 875.128906 806.875 C 880.539062 806.875 885.785156 803.957031 888.503906 798.835938 C 892.417969 791.476562 889.59375 782.316406 882.21875 778.402344 L 856.722656 764.910156 L 856.722656 433.222656 C 856.722656 417.429688 848.109375 403.058594 834.207031 395.683594 L 543.851562 242.054688 C 531.582031 235.585938 516.953125 235.570312 504.636719 242.054688 L 214.285156 395.667969 Z M 228.445312 777.390625 C 224.453125 775.277344 221.992188 771.136719 221.992188 766.554688 L 221.992188 446.097656 L 327.777344 506.773438 L 327.777344 701.769531 C 327.777344 707.359375 330.875 712.515625 335.816406 715.128906 L 509.125 806.832031 L 509.125 925.898438 L 228.445312 777.375 Z M 524.238281 780.640625 L 375.152344 701.753906 L 524.238281 622.625 L 673.320312 701.753906 Z M 690.472656 676.667969 L 539.347656 596.453125 L 539.347656 427.148438 L 690.472656 507.109375 Z M 509.125 596.453125 L 358 676.667969 L 358 507.121094 L 509.125 427.164062 L 509.125 596.464844 Z M 820.046875 777.390625 L 539.347656 925.898438 L 539.347656 806.84375 L 712.65625 715.144531 C 717.597656 712.53125 720.695312 707.375 720.695312 701.785156 L 720.695312 506.789062 L 826.484375 446.113281 L 826.484375 766.570312 C 826.484375 771.148438 824.019531 775.289062 820.046875 777.40625 Z M 524.238281 267.441406 C 526.125 267.441406 528 267.878906 529.707031 268.785156 L 813.289062 418.835938 L 705.3125 480.765625 L 531.308594 388.6875 C 526.882812 386.359375 521.59375 386.359375 517.164062 388.6875 L 343.160156 480.765625 L 235.183594 418.820312 L 518.75 268.785156 C 520.457031 267.863281 522.347656 267.425781 524.238281 267.425781 Z M 524.238281 267.441406 " fill-opacity="1" fill-rule="nonzero"/></g><path fill="#0481d1" d="M 85.996094 853.238281 C 88.382812 853.238281 90.800781 852.679688 93.066406 851.488281 L 125.859375 834.109375 C 133.222656 830.195312 136.046875 821.050781 132.132812 813.660156 C 128.21875 806.300781 119.0625 803.476562 111.6875 807.390625 L 78.890625 824.769531 C 71.53125 828.683594 68.707031 837.824219 72.621094 845.214844 C 75.339844 850.324219 80.570312 853.238281 85.996094 853.238281 Z M 85.996094 853.238281 " fill-opacity="1" fill-rule="nonzero"/><path fill="#0481d1" d="M 283.953125 716.125 L 254.40625 731.78125 C 247.046875 735.695312 244.222656 744.839844 248.136719 752.230469 C 250.855469 757.335938 256.085938 760.253906 261.507812 760.253906 C 263.898438 760.253906 266.316406 759.695312 268.582031 758.5 L 298.125 742.84375 C 305.484375 738.929688 308.3125 729.789062 304.398438 722.398438 C 300.46875 715.039062 291.3125 712.210938 283.953125 716.125 Z M 283.953125 716.125 " fill-opacity="1" fill-rule="nonzero"/><path fill="#0481d1" d="M 794.066406 731.796875 L 764.523438 716.140625 C 757.148438 712.242188 748.003906 715.054688 744.074219 722.414062 C 740.160156 729.789062 742.988281 738.945312 750.347656 742.859375 L 779.890625 758.515625 C 782.144531 759.710938 784.578125 760.269531 786.964844 760.269531 C 792.375 760.269531 797.617188 757.351562 800.339844 752.246094 C 804.253906 744.871094 801.425781 735.710938 794.066406 731.796875 Z M 794.066406 731.796875 " fill-opacity="1" fill-rule="nonzero"/><path fill="#0481d1" d="M 922.613281 834.09375 L 955.40625 851.472656 C 957.65625 852.664062 960.089844 853.226562 962.480469 853.226562 C 967.890625 853.226562 973.132812 850.308594 975.851562 845.199219 C 979.765625 837.824219 976.941406 828.667969 969.582031 824.753906 L 936.789062 807.375 C 929.429688 803.476562 920.253906 806.285156 916.339844 813.644531 C 912.425781 821.019531 915.253906 830.179688 922.613281 834.09375 Z M 922.613281 834.09375 " fill-opacity="1" fill-rule="nonzero"/><path fill="#0481d1" d="M 524.238281 358.101562 C 532.59375 358.101562 539.347656 351.34375 539.347656 342.988281 L 539.347656 312.761719 C 539.347656 304.40625 532.59375 297.652344 524.238281 297.652344 C 515.878906 297.652344 509.125 304.40625 509.125 312.761719 L 509.125 342.988281 C 509.125 351.34375 515.878906 358.101562 524.238281 358.101562 Z M 524.238281 358.101562 " fill-opacity="1" fill-rule="nonzero"/><path fill="#0481d1" d="M 509.125 191.863281 C 509.125 200.222656 515.878906 206.976562 524.238281 206.976562 C 532.59375 206.976562 539.347656 200.222656 539.347656 191.863281 L 539.347656 161.640625 C 539.347656 153.28125 532.59375 146.527344 524.238281 146.527344 C 515.878906 146.527344 509.125 153.28125 509.125 161.640625 Z M 509.125 191.863281 " fill-opacity="1" fill-rule="nonzero"/><g clip-path="url(#bd349e03c1)"><path fill="#0481d1" d="M 524.238281 116.304688 C 532.59375 116.304688 539.347656 109.546875 539.347656 101.191406 L 539.347656 70.964844 C 539.347656 62.609375 532.59375 55.855469 524.238281 55.855469 C 515.878906 55.855469 509.125 62.609375 509.125 70.964844 L 509.125 101.191406 C 509.125 109.546875 515.878906 116.304688 524.238281 116.304688 Z M 524.238281 116.304688 " fill-opacity="1" fill-rule="nonzero"/></g></svg>