<svg xmlns="http://www.w3.org/2000/svg" xmlns:xlink="http://www.w3.org/1999/xlink" width="1400" zoomAndPan="magnify" viewBox="0 0 1050 1049.999947" height="1400" preserveAspectRatio="xMidYMid meet" version="1.0"><defs><g/></defs><rect x="-105" width="1260" fill="#ffffff" y="-104.999995" height="1259.999936" fill-opacity="1"/><rect x="-105" width="1260" fill="#737373" y="-104.999995" height="1259.999936" fill-opacity="1"/><g fill="#ffffff" fill-opacity="1"><g transform="translate(256.928381, 574.286302)"><g><path d="M 16.5 0 L 57.519531 0 L 57.519531 -165.015625 L 16.5 -165.015625 Z M 16.5 0 "/></g></g></g><g fill="#ffffff" fill-opacity="1"><g transform="translate(330.711199, 574.286302)"><g><path d="M 16.5 0 L 57.519531 0 L 57.519531 -108.910156 L 59.40625 -108.910156 L 96.179688 0 L 140.734375 0 L 140.5 -166.429688 L 99.480469 -166.429688 L 99.714844 -60.113281 L 97.832031 -60.113281 L 60.820312 -166.429688 L 16.5 -166.664062 Z M 16.5 0 "/></g></g></g><g fill="#ffffff" fill-opacity="1"><g transform="translate(487.470199, 574.286302)"><g><path d="M 73.3125 -166.429688 L 16.5 -166.429688 L 16.5 0 L 72.84375 0 C 115.746094 0 144.269531 -34.417969 144.269531 -85.808594 C 144.269531 -137.433594 115.984375 -166.429688 73.3125 -166.429688 Z M 72.605469 -135.3125 C 90.996094 -135.3125 103.488281 -117.398438 103.488281 -82.035156 C 103.488281 -51.625 91.464844 -31.117188 73.3125 -31.117188 L 57.519531 -31.117188 L 57.519531 -135.3125 Z M 72.605469 -135.3125 "/></g></g></g><g fill="#ffffff" fill-opacity="1"><g transform="translate(643.757735, 574.286302)"><g><path d="M 2.59375 0 L 50.449219 0 L 73.785156 -63.882812 L 75.671875 -63.882812 L 98.773438 0 L 146.863281 0 L 101.601562 -84.15625 L 146.15625 -166.429688 L 98.300781 -166.429688 L 75.671875 -104.429688 L 73.785156 -104.429688 L 51.15625 -166.429688 L 3.066406 -166.429688 L 47.855469 -84.15625 Z M 2.59375 0 "/></g></g></g></svg>