<svg width="463" height="128" viewBox="0 0 463 128" fill="none" xmlns="http://www.w3.org/2000/svg">
<mask id="mask0_78_164" style="mask-type:luminance" maskUnits="userSpaceOnUse" x="0" y="0" width="463" height="128">
<path d="M0 0H462.943V127.339H0V0Z" fill="white"/>
</mask>
<g mask="url(#mask0_78_164)">
<path d="M0 0H462.943V127.339H0V0Z" stroke="black" stroke-width="5.99788"/>
</g>
<mask id="mask1_78_164" style="mask-type:luminance" maskUnits="userSpaceOnUse" x="12" y="11" width="220" height="105">
<path d="M12.5039 11.9795H231.415V115.49H12.5039V11.9795Z" fill="white"/>
</mask>
<g mask="url(#mask1_78_164)">
<path d="M12.5039 11.9795H231.415V115.49H12.5039V11.9795Z" fill="black"/>
</g>
<path d="M259.369 80.8717C268.01 80.8717 273.13 76.7988 273.13 69.9447C273.13 64.179 269.4 60.804 260.958 58.9134C256.489 57.9238 254.848 56.8301 254.848 55.0384C254.848 53.3509 256.338 52.3092 258.671 52.3092C261.452 52.3092 263.046 53.752 263.046 56.3822H272.484C272.484 49.2311 267.02 44.6113 258.473 44.6113C250.275 44.6113 245.213 48.6842 245.213 55.2415C245.213 61.1009 249.036 64.7259 256.885 66.2155C261.109 67.0645 263.145 68.3561 263.145 70.3405C263.145 72.0801 261.65 73.0749 259.218 73.0749C256.338 73.0749 254.65 71.5332 254.65 68.8509H244.963C244.963 76.3509 250.327 80.8717 259.369 80.8717Z" fill="black"/>
<path d="M278.643 80.1263H288.674V71.5326H293.294C302.137 71.5326 307.752 66.418 307.752 58.418C307.752 50.418 302.137 45.3555 293.294 45.3555H278.643V80.1263ZM288.575 63.1367V53.7982H292.351C295.679 53.7982 297.617 55.5846 297.617 58.4701C297.617 61.3971 295.679 63.1367 292.351 63.1367H288.575Z" fill="black"/>
<path d="M329.505 80.8717C340.583 80.8717 348.432 73.3717 348.432 62.7415C348.432 52.1113 340.583 44.6113 329.505 44.6113C318.427 44.6113 310.578 52.1113 310.578 62.7415C310.578 73.3717 318.427 80.8717 329.505 80.8717ZM320.76 62.7415C320.76 57.5228 324.391 53.8978 329.505 53.8978C334.672 53.8978 338.25 57.5228 338.25 62.7415C338.25 67.9551 334.672 71.5853 329.505 71.5853C324.391 71.5853 320.76 67.9551 320.76 62.7415Z" fill="black"/>
<path d="M353.846 80.1263H363.877V70.2409H367.653L372.622 80.1263H383.997L377.59 68.4023C381.268 66.3659 383.351 62.6888 383.351 57.8242C383.351 50.1211 378.137 45.3555 369.689 45.3555H353.846V80.1263ZM363.679 62.2409V53.5482H368.351C371.528 53.5482 373.268 55.0898 373.268 57.8711C373.268 60.6523 371.528 62.2409 368.351 62.2409H363.679Z" fill="black"/>
<path d="M397.908 80.1263H407.892V54.6419H418.47V45.3555H387.324V54.6419H397.908V80.1263Z" fill="black"/>
<path d="M436.004 80.8717C444.645 80.8717 449.764 76.7988 449.764 69.9447C449.764 64.179 446.035 60.804 437.592 58.9134C433.124 57.9238 431.483 56.8301 431.483 55.0384C431.483 53.3509 432.973 52.3092 435.306 52.3092C438.087 52.3092 439.681 53.752 439.681 56.3822H449.118C449.118 49.2311 443.655 44.6113 435.108 44.6113C426.91 44.6113 421.848 48.6842 421.848 55.2415C421.848 61.1009 425.671 64.7259 433.52 66.2155C437.743 67.0645 439.78 68.3561 439.78 70.3405C439.78 72.0801 438.285 73.0749 435.853 73.0749C432.973 73.0749 431.285 71.5332 431.285 68.8509H421.598C421.598 76.3509 426.962 80.8717 436.004 80.8717Z" fill="black"/>
<path d="M57 79.776H61.3698V45H57V79.776Z" fill="white"/>
<path d="M75.2773 79.776H79.6003V52.5521L98.8242 79.776H102.897V45H98.6263V72.224L79.4023 45H75.2773V79.776Z" fill="white"/>
<path d="M116.795 79.776H128.816C139.498 79.776 146.649 72.6719 146.649 62.3906C146.649 52.1042 139.498 45 128.816 45H116.795V79.776ZM121.165 75.6042V49.1771H128.618C136.717 49.1771 142.18 54.4896 142.18 62.3906C142.18 70.2865 136.764 75.6042 128.816 75.6042H121.165Z" fill="white"/>
<path d="M155.18 79.776H160.398L170.383 65.3177L173.263 69.4948L180.367 79.776H185.534L173.065 61.9427L184.94 45H179.82L173.315 54.3438L170.383 58.7135L160.893 45H155.68L167.602 61.9896L155.18 79.776Z" fill="white"/>
</svg>
